<?xml version="1.0" standalone="no"?>
<!DOCTYPE svg PUBLIC "-//W3C//DTD SVG 20010904//EN"
 "http://www.w3.org/TR/2001/REC-SVG-20010904/DTD/svg10.dtd">
<svg version="1.0" xmlns="http://www.w3.org/2000/svg"
 width="1024.000000pt" height="1024.000000pt" viewBox="0 0 1024.000000 1024.000000"
 preserveAspectRatio="xMidYMid meet">
<metadata>
Created by potrace 1.16, written by Peter Selinger 2001-2019
</metadata>
<g transform="translate(0.000000,1024.000000) scale(0.100000,-0.100000)"
fill="#000000" stroke="none">
<path d="M4865 8359 c-341 -43 -651 -257 -816 -564 -150 -277 -168 -625 -48
-924 l30 -76 -23 -18 c-282 -225 -468 -484 -572 -798 -176 -528 -72 -1108 278
-1548 33 -42 46 -66 38 -69 -7 -2 -70 -42 -139 -88 -645 -431 -1125 -1203
-1308 -2102 -56 -277 -81 -519 -90 -874 l-5 -218 2796 0 2797 0 -6 248 c-17
681 -144 1238 -402 1767 -253 518 -666 992 -1068 1227 -40 23 -74 43 -75 44
-2 2 21 33 51 71 444 553 476 1344 79 1939 -104 155 -207 263 -400 419 -1 1
10 28 24 61 69 156 101 404 74 585 -85 583 -625 991 -1215 918z"/>
</g>
</svg>
