<?xml version="1.0" standalone="no"?>
<!DOCTYPE svg PUBLIC "-//W3C//DTD SVG 20010904//EN"
 "http://www.w3.org/TR/2001/REC-SVG-20010904/DTD/svg10.dtd">
<svg version="1.0" xmlns="http://www.w3.org/2000/svg"
 width="920.000000pt" height="920.000000pt" viewBox="0 0 920.000000 920.000000"
 preserveAspectRatio="xMidYMid meet">
<metadata>
Created by potrace 1.16, written by Peter Selinger 2001-2019
</metadata>
<g transform="translate(0.000000,920.000000) scale(0.100000,-0.100000)"
fill="#000000" stroke="none">
<path d="M1970 7292 l0 -617 158 -120 c86 -66 289 -219 449 -340 l293 -220 0
-1358 0 -1357 -252 -268 c-139 -147 -312 -331 -385 -408 l-133 -141 0 -392 0
-391 -230 0 -230 0 2 -338 3 -337 2955 0 2955 0 3 337 2 338 -230 0 -230 0 0
388 0 387 -117 125 c-64 69 -180 193 -258 275 -78 83 -198 211 -268 285 l-127
135 0 1356 0 1356 23 20 c12 11 184 143 382 293 198 150 390 296 428 324 l67
51 -2 615 -3 615 -517 3 -518 2 0 -275 0 -275 -475 0 -475 0 0 275 0 275 -640
0 -640 0 0 -275 0 -275 -475 0 -475 0 0 275 0 275 -520 0 -520 0 0 -618z
m5093 -500 c68 -69 68 -135 0 -204 l-37 -38 -2426 0 -2426 0 -37 38 c-44 45
-59 89 -46 134 5 17 25 49 46 70 l37 38 2426 0 2426 0 37 -38z m-899 -709 c52
-67 51 -114 -5 -177 l-41 -46 -1518 0 -1518 0 -41 46 c-56 63 -57 110 -5 177
l37 47 1527 0 1527 0 37 -47z m0 -2720 c52 -67 51 -114 -5 -177 l-41 -46
-1517 0 -1517 0 -31 33 c-66 69 -71 121 -18 191 l36 46 1528 0 1528 0 37 -47z
m511 -782 c127 -5 238 -11 247 -15 27 -12 58 -70 58 -108 0 -49 -37 -100 -85
-118 -35 -13 -302 -15 -2030 -16 -1094 0 -2121 2 -2282 5 l-292 6 -30 29 c-53
51 -54 120 -2 178 28 31 31 32 137 38 156 10 4003 10 4279 1z m236 -778 c35
-15 69 -72 69 -114 0 -40 -30 -93 -62 -110 -16 -9 -97 -15 -253 -19 -331 -9
-3071 -10 -3777 -2 -574 7 -597 8 -618 27 -50 45 -62 102 -34 161 22 46 45 58
129 65 39 3 1071 6 2295 5 1679 -1 2231 -4 2251 -13z"/>
</g>
</svg>
