<?xml version="1.0" standalone="no"?>
<!DOCTYPE svg PUBLIC "-//W3C//DTD SVG 20010904//EN"
 "http://www.w3.org/TR/2001/REC-SVG-20010904/DTD/svg10.dtd">
<svg version="1.0" xmlns="http://www.w3.org/2000/svg"
 width="320.000000pt" height="320.000000pt" viewBox="0 0 320.000000 320.000000"
 preserveAspectRatio="xMidYMid meet">
<metadata>
Created by potrace 1.16, written by Peter Selinger 2001-2019
</metadata>
<g transform="translate(0.000000,320.000000) scale(0.100000,-0.100000)"
fill="#000000" stroke="none">
<path d="M1545 3021 c-67 -30 -95 -121 -56 -187 l22 -37 -53 -45 c-116 -99
-189 -181 -220 -247 -28 -61 -30 -73 -26 -144 5 -93 36 -155 100 -201 l41 -30
247 0 247 0 41 30 c22 16 53 51 69 77 25 43 28 57 28 138 0 75 -4 97 -24 135
-28 52 -62 100 -71 100 -4 0 -46 -52 -94 -115 -48 -63 -90 -115 -92 -115 -3 0
-3 3 -1 8 3 4 37 60 76 125 39 65 71 124 71 132 0 8 -36 44 -80 81 -44 37 -80
68 -80 70 0 2 10 19 21 39 30 51 22 116 -19 158 -24 23 -41 31 -79 33 -26 2
-57 0 -68 -5z"/>
<path d="M1380 1980 l0 -100 220 0 220 0 0 100 0 100 -220 0 -220 0 0 -100z"/>
<path d="M1400 1838 c0 -7 -13 -123 -30 -258 -32 -269 -50 -445 -50 -502 l0
-38 280 0 280 0 0 38 c0 57 -18 233 -50 502 -17 135 -30 251 -30 258 0 9 -51
12 -200 12 -149 0 -200 -3 -200 -12z"/>
<path d="M1300 930 l0 -80 300 0 300 0 0 80 0 80 -300 0 -300 0 0 -80z"/>
<path d="M1330 786 c0 -18 7 -50 15 -69 8 -20 15 -43 15 -51 0 -9 -26 -53 -57
-98 -60 -88 -82 -136 -83 -180 l0 -28 380 0 380 0 0 28 c-1 44 -23 92 -83 180
-31 45 -57 89 -57 98 0 8 7 31 15 51 8 19 15 51 15 69 l0 34 -270 0 -270 0 0
-34z"/>
<path d="M1180 250 l0 -80 420 0 420 0 0 80 0 80 -420 0 -420 0 0 -80z"/>
</g>
</svg>
