<?xml version="1.0" standalone="no"?>
<!DOCTYPE svg PUBLIC "-//W3C//DTD SVG 20010904//EN"
 "http://www.w3.org/TR/2001/REC-SVG-20010904/DTD/svg10.dtd">
<svg version="1.0" xmlns="http://www.w3.org/2000/svg"
 width="840.000000pt" height="707.000000pt" viewBox="0 0 840.000000 707.000000"
 preserveAspectRatio="xMidYMid meet">
<metadata>
Created by potrace 1.16, written by Peter Selinger 2001-2019
</metadata>
<g transform="translate(0.000000,707.000000) scale(0.100000,-0.100000)"
fill="#000000" stroke="none">
<path d="M3900 6659 c-83 -33 -220 -184 -350 -384 -35 -55 -65 -102 -67 -104
-1 -2 -14 6 -30 17 -111 78 -358 195 -534 253 -178 58 -319 83 -481 83 -75 1
-139 -1 -142 -4 -3 -3 4 -84 16 -180 17 -134 22 -233 22 -425 l1 -250 -38
-112 c-94 -280 -248 -634 -537 -1238 -462 -965 -686 -1510 -749 -1817 -11 -53
-11 -60 15 -110 181 -360 363 -499 808 -613 166 -43 182 -46 227 -35 53 13
129 59 158 96 10 13 21 24 23 24 3 0 8 -29 11 -65 7 -71 35 -146 70 -183 60
-65 188 -90 270 -54 41 18 56 35 144 169 55 81 144 220 198 308 217 351 380
527 665 717 102 68 398 221 451 234 l27 6 -15 -79 c-57 -312 -179 -526 -605
-1064 -278 -351 -442 -660 -528 -994 -33 -126 -60 -307 -60 -395 l0 -60 2243
0 2244 0 11 133 c34 385 39 937 12 1337 -72 1077 -340 1962 -803 2655 -221
331 -508 662 -747 860 -263 218 -576 373 -850 420 -104 18 -295 24 -376 12
l-51 -7 -23 77 c-30 104 -100 294 -135 366 -60 127 -193 260 -373 372 -76 48
-83 49 -122 34z m740 -1319 c221 -22 382 -83 600 -228 330 -219 750 -674 1006
-1089 373 -606 575 -1298 624 -2138 15 -267 13 -746 -5 -829 -25 -119 -87
-186 -173 -186 -53 0 -93 20 -126 63 -64 84 -75 162 -86 582 -5 198 -14 416
-20 485 -83 926 -309 1596 -730 2158 -103 138 -415 461 -552 570 -261 210
-549 354 -755 378 -44 6 -58 13 -83 41 -16 18 -33 45 -36 58 -15 59 28 120 92
130 22 3 46 10 54 15 8 6 31 8 50 5 19 -3 82 -10 140 -15z m-1553 -445 c156
-46 137 -196 -50 -391 -202 -212 -423 -329 -584 -311 -84 9 -130 90 -120 213
15 190 227 424 442 485 78 23 243 25 312 4z m-1430 -2142 c5 -16 8 -62 8 -103
-1 -91 -28 -154 -93 -217 -48 -47 -141 -83 -214 -83 -35 0 -40 3 -54 35 -29
71 -13 164 48 257 51 81 153 137 250 138 44 0 48 -2 55 -27z"/>
</g>
</svg>
