<?xml version="1.0" standalone="no"?>
<!DOCTYPE svg PUBLIC "-//W3C//DTD SVG 20010904//EN"
 "http://www.w3.org/TR/2001/REC-SVG-20010904/DTD/svg10.dtd">
<svg version="1.0" xmlns="http://www.w3.org/2000/svg"
 width="320.000000pt" height="320.000000pt" viewBox="0 0 320.000000 320.000000"
 preserveAspectRatio="xMidYMid meet">
<metadata>
Created by potrace 1.16, written by Peter Selinger 2001-2019
</metadata>
<g transform="translate(0.000000,320.000000) scale(0.100000,-0.100000)"
fill="#000000" stroke="none">
<path d="M1523 3014 l5 -115 -114 7 -114 7 0 -83 0 -82 116 4 116 3 -6 -44
c-3 -24 -6 -57 -6 -72 0 -22 -5 -29 -20 -29 -16 0 -20 -7 -20 -30 0 -27 -3
-30 -32 -31 -60 -1 -119 -32 -151 -79 -31 -45 -22 -99 69 -412 l17 -58 217 0
217 0 17 58 c60 205 86 310 86 344 0 80 -56 134 -149 145 -48 5 -51 7 -51 34
0 22 -5 29 -20 29 -15 0 -20 7 -20 29 0 15 -3 48 -6 72 l-6 44 116 -3 116 -4
0 82 0 83 -114 -7 -114 -7 5 115 6 116 -83 0 -83 0 6 -116z"/>
<path d="M1370 1880 l0 -80 230 0 230 0 0 80 0 80 -230 0 -230 0 0 -80z"/>
<path d="M1406 1663 c16 -166 11 -237 -29 -378 -37 -131 -56 -238 -57 -307 l0
-38 280 0 280 0 0 38 c-1 69 -20 176 -57 307 -40 141 -45 212 -29 378 l9 87
-203 0 -203 0 9 -87z"/>
<path d="M1300 830 l0 -80 300 0 300 0 0 80 0 80 -300 0 -300 0 0 -80z"/>
<path d="M1330 685 c0 -19 7 -50 16 -69 22 -44 14 -70 -40 -144 -59 -79 -75
-113 -83 -167 l-6 -45 383 0 383 0 -6 45 c-8 54 -24 88 -83 167 -54 74 -62
100 -40 144 9 19 16 50 16 69 l0 35 -270 0 -270 0 0 -35z"/>
<path d="M1180 150 l0 -80 420 0 420 0 0 80 0 80 -420 0 -420 0 0 -80z"/>
</g>
</svg>
