<?xml version="1.0" standalone="no"?>
<!DOCTYPE svg PUBLIC "-//W3C//DTD SVG 20010904//EN"
 "http://www.w3.org/TR/2001/REC-SVG-20010904/DTD/svg10.dtd">
<svg version="1.0" xmlns="http://www.w3.org/2000/svg"
 width="320.000000pt" height="320.000000pt" viewBox="0 0 320.000000 320.000000"
 preserveAspectRatio="xMidYMid meet">
<metadata>
Created by potrace 1.16, written by Peter Selinger 2001-2019
</metadata>
<g transform="translate(0.000000,320.000000) scale(0.100000,-0.100000)"
fill="#000000" stroke="none">
<path d="M1523 3014 l5 -115 -114 7 -114 7 0 -83 0 -82 116 4 116 3 -6 -44
c-3 -24 -6 -57 -6 -72 0 -22 -5 -29 -20 -29 -16 0 -20 -7 -20 -30 0 -27 -3
-30 -32 -31 -60 -1 -119 -32 -151 -79 -31 -45 -22 -99 69 -412 l17 -58 217 0
217 0 17 58 c60 205 86 310 86 344 0 80 -56 134 -149 145 -48 5 -51 7 -51 34
0 22 -5 29 -20 29 -15 0 -20 7 -20 29 0 15 -3 48 -6 72 l-6 44 116 -3 116 -4
0 82 0 83 -114 -7 -114 -7 5 115 6 116 -83 0 -83 0 6 -116z m97 -57 l0 -112
116 4 116 3 -4 -23 c-3 -22 -5 -23 -115 -20 l-113 3 0 -101 c0 -94 -1 -101
-20 -101 -19 0 -20 7 -20 101 l0 101 -112 -3 c-111 -3 -113 -2 -116 20 l-4 23
116 -3 116 -4 0 112 c0 106 1 113 20 113 19 0 20 -7 20 -113z m40 -447 c0 -53
5 -58 36 -35 43 33 137 11 163 -39 13 -23 11 -38 -13 -128 -14 -57 -37 -137
-50 -178 l-23 -75 -173 0 -174 0 -18 60 c-60 199 -80 287 -68 314 22 54 118
81 164 46 31 -23 36 -18 36 35 l0 50 60 0 60 0 0 -50z"/>
<path d="M1370 1880 l0 -80 230 0 230 0 0 80 0 80 -230 0 -230 0 0 -80z m400
-5 l0 -25 -170 0 -170 0 0 25 0 25 170 0 170 0 0 -25z"/>
<path d="M1406 1663 c16 -166 11 -237 -29 -378 -37 -131 -56 -238 -57 -307 l0
-38 280 0 280 0 0 38 c-1 69 -20 176 -57 307 -40 141 -45 212 -29 378 l9 87
-203 0 -203 0 9 -87z m340 10 c-3 -10 -10 -52 -16 -93 -12 -88 1 -179 50 -350
16 -58 33 -133 36 -167 l7 -63 -223 0 -223 0 7 63 c3 34 20 109 36 167 49 171
62 262 50 350 -6 41 -13 83 -16 93 -5 16 7 17 146 17 139 0 151 -1 146 -17z"/>
<path d="M1300 830 l0 -80 300 0 300 0 0 80 0 80 -300 0 -300 0 0 -80z m540 5
l0 -25 -240 0 -240 0 0 25 0 25 240 0 240 0 0 -25z"/>
<path d="M1330 685 c0 -19 7 -50 16 -69 22 -44 14 -70 -40 -144 -59 -79 -75
-113 -83 -167 l-6 -45 383 0 383 0 -6 45 c-8 54 -24 88 -83 167 -54 74 -62
100 -40 144 9 19 16 50 16 69 l0 35 -270 0 -270 0 0 -35z m464 -67 c-19 -54
-9 -86 61 -187 29 -42 55 -86 59 -99 l7 -22 -321 0 -321 0 7 22 c4 13 30 57
59 99 70 101 80 133 61 187 l-15 42 209 0 209 0 -15 -42z"/>
<path d="M1180 150 l0 -80 420 0 420 0 0 80 0 80 -420 0 -420 0 0 -80z m790 0
c0 -20 -7 -20 -370 -20 -363 0 -370 0 -370 20 0 20 7 20 370 20 363 0 370 0
370 -20z"/>
</g>
</svg>
