<?xml version="1.0" standalone="no"?>
<!DOCTYPE svg PUBLIC "-//W3C//DTD SVG 20010904//EN"
 "http://www.w3.org/TR/2001/REC-SVG-20010904/DTD/svg10.dtd">
<svg version="1.0" xmlns="http://www.w3.org/2000/svg"
 width="920.000000pt" height="598.000000pt" viewBox="0 0 920.000000 598.000000"
 preserveAspectRatio="xMidYMid meet">
<metadata>
Created by potrace 1.16, written by Peter Selinger 2001-2019
</metadata>
<g transform="translate(0.000000,598.000000) scale(0.100000,-0.100000)"
fill="#000000" stroke="none">
<path d="M2413 5971 c-60 -7 -88 -29 -104 -80 -14 -44 -24 -746 -14 -967 l7
-150 81 -68 c45 -37 209 -165 365 -284 l282 -216 0 -1076 0 -1076 -36 -35
c-57 -54 -474 -498 -527 -561 -26 -31 -52 -71 -57 -90 -6 -18 -10 -147 -10
-285 l0 -253 -117 0 c-136 0 -182 -10 -226 -50 l-32 -28 0 -324 c0 -308 1
-325 21 -358 41 -71 -185 -65 2569 -68 l2490 -3 35 36 35 36 0 332 c0 361 -2
379 -56 404 -14 7 -89 16 -166 19 l-141 7 -4 267 -3 267 -50 59 c-64 76 -267
300 -439 484 l-136 145 0 1077 0 1077 136 103 c233 176 487 374 539 421 l50
45 0 559 c0 511 -1 561 -17 585 -33 50 -56 52 -548 53 -516 0 -502 2 -535 -77
-14 -33 -19 -80 -23 -205 l-4 -163 -254 0 -254 0 0 93 c-1 169 -11 270 -29
297 -37 52 -60 54 -656 54 -517 1 -553 0 -579 -17 -49 -33 -60 -75 -64 -259
l-4 -168 -253 0 -252 0 -7 53 c-3 28 -6 104 -6 168 0 64 -5 130 -11 148 -15
42 -55 61 -148 71 -92 9 -775 10 -848 1z m737 -388 c0 -241 27 -305 133 -318
28 -3 234 -5 456 -3 l403 3 32 43 31 44 3 179 3 179 394 0 393 0 4 -178 c3
-193 8 -212 65 -249 25 -16 63 -18 443 -18 451 0 485 3 517 52 14 21 19 61 24
207 4 100 8 182 8 184 1 1 132 2 291 2 l290 0 0 -370 0 -370 -2040 0 -2040 0
0 370 0 370 295 0 295 0 0 -127z m3215 -902 c-6 -5 -87 -68 -182 -140 l-172
-131 -1409 0 -1410 0 -163 126 c-90 69 -171 132 -179 140 -12 12 243 14 1755
14 1026 0 1765 -4 1760 -9z m-465 -1541 l0 -1000 -1300 0 -1300 0 0 1000 0
1000 1300 0 1300 0 0 -1000z m269 -1467 c100 -108 181 -200 181 -205 0 -4
-790 -8 -1755 -8 -965 0 -1755 3 -1755 6 0 3 84 95 188 204 l187 199 1387 1
1387 0 180 -197z m371 -663 l0 -180 -1935 0 -1935 0 0 180 0 180 1935 0 1935
0 0 -180z m375 -597 l1 -143 -2313 0 -2313 0 0 145 0 145 2312 -2 2313 -3 0
-142z"/>
</g>
</svg>
