<?xml version="1.0" standalone="no"?>
<!DOCTYPE svg PUBLIC "-//W3C//DTD SVG 20010904//EN"
 "http://www.w3.org/TR/2001/REC-SVG-20010904/DTD/svg10.dtd">
<svg version="1.0" xmlns="http://www.w3.org/2000/svg"
 width="1024.000000pt" height="1024.000000pt" viewBox="0 0 1024.000000 1024.000000"
 preserveAspectRatio="xMidYMid meet">
<metadata>
Created by potrace 1.16, written by Peter Selinger 2001-2019
</metadata>
<g transform="translate(0.000000,1024.000000) scale(0.100000,-0.100000)"
fill="#000000" stroke="none">
<path d="M4870 10226 c-318 -57 -580 -191 -811 -413 -220 -213 -370 -486 -436
-793 -26 -122 -26 -479 0 -599 25 -114 62 -232 102 -318 19 -40 30 -73 26 -73
-15 0 -207 -165 -291 -250 -272 -274 -484 -642 -584 -1010 -61 -228 -71 -312
-70 -615 0 -262 2 -289 27 -416 77 -393 241 -746 482 -1040 l63 -76 -87 -50
c-494 -290 -978 -792 -1332 -1381 -404 -672 -648 -1441 -734 -2312 -15 -149
-34 -588 -35 -797 l0 -83 3925 0 3925 0 0 278 c0 387 -21 657 -80 1020 -204
1254 -803 2348 -1662 3033 -103 82 -301 217 -384 263 l-52 28 70 86 c249 310
408 662 480 1058 20 115 23 159 23 399 -1 237 -3 285 -23 390 -106 563 -381
1032 -817 1393 -54 45 -102 82 -107 82 -5 0 2 21 16 48 37 73 82 209 108 323
20 91 23 130 23 319 0 189 -3 228 -23 319 -68 301 -198 539 -416 756 -217 216
-439 341 -736 412 -91 22 -133 26 -310 29 -141 2 -228 -1 -280 -10z m415 -481
c151 -24 285 -77 411 -161 338 -224 517 -635 449 -1030 -32 -188 -92 -319
-230 -509 -52 -72 -99 -137 -105 -146 -8 -14 15 -31 146 -105 337 -193 557
-398 736 -687 339 -544 355 -1265 41 -1825 -139 -247 -299 -424 -606 -667 -97
-77 -176 -142 -177 -145 0 -3 89 -36 198 -74 354 -124 506 -199 731 -360 617
-440 1120 -1160 1401 -2006 159 -477 246 -954 272 -1498 l3 -52 -3435 0 -3436
0 4 73 c43 950 323 1850 795 2557 302 451 675 818 1071 1053 141 83 267 138
538 233 109 38 198 71 198 74 -1 3 -71 61 -158 130 -302 241 -412 353 -544
549 -190 285 -289 590 -305 941 -22 504 172 997 537 1361 125 124 251 218 441
329 85 49 160 93 167 97 10 6 -11 41 -78 132 -151 207 -196 294 -241 468 -33
123 -33 369 -1 486 54 197 145 358 278 491 237 237 570 345 899 291z"/>
</g>
</svg>
