<?xml version="1.0" standalone="no"?>
<!DOCTYPE svg PUBLIC "-//W3C//DTD SVG 20010904//EN"
 "http://www.w3.org/TR/2001/REC-SVG-20010904/DTD/svg10.dtd">
<svg version="1.0" xmlns="http://www.w3.org/2000/svg"
 width="860.000000pt" height="899.000000pt" viewBox="0 0 860.000000 899.000000"
 preserveAspectRatio="xMidYMid meet">
<metadata>
Created by potrace 1.16, written by Peter Selinger 2001-2019
</metadata>
<g transform="translate(0.000000,899.000000) scale(0.100000,-0.100000)"
fill="#000000" stroke="none">
<path d="M3963 8546 c-213 -122 -431 -355 -577 -618 l-38 -68 -128 0 -129 0
-70 103 c-146 214 -289 371 -409 451 -91 60 -151 80 -242 80 -63 0 -85 -4
-132 -27 -69 -34 -123 -92 -138 -148 -8 -29 -10 -121 -7 -283 5 -266 10 -298
75 -439 34 -75 35 -81 23 -125 -33 -130 -166 -344 -329 -534 -78 -91 -126
-161 -219 -320 -729 -1244 -1194 -2154 -1304 -2557 -58 -209 -19 -624 81 -864
101 -242 278 -397 517 -453 78 -18 241 -22 398 -11 l110 8 17 -48 c24 -65 85
-142 133 -167 32 -16 63 -22 150 -24 258 -9 402 81 639 395 242 323 345 423
660 642 490 339 879 655 1206 978 85 84 157 153 159 153 6 0 -9 -153 -25 -270
-79 -543 -263 -945 -618 -1345 -44 -49 -229 -238 -411 -420 -183 -182 -369
-377 -415 -435 -299 -376 -442 -740 -481 -1223 -6 -81 -9 -172 -7 -202 6 -72
45 -130 103 -156 42 -19 102 -19 2827 -17 l2784 3 37 25 c20 13 46 43 59 65
l23 40 -1 660 c0 490 -5 739 -17 965 -139 2473 -750 4001 -1929 4823 -459 320
-1056 543 -1710 638 l-157 23 -6 66 c-4 36 -17 121 -30 190 -56 313 -182 470
-374 470 -40 0 -68 -7 -98 -24z m105 -419 c22 -85 42 -233 48 -351 7 -149 15
-175 64 -220 41 -37 53 -41 135 -50 109 -12 396 -56 495 -76 727 -147 1275
-426 1731 -880 760 -756 1196 -1992 1343 -3800 36 -432 61 -1280 49 -1611 l-6
-179 -2558 0 -2558 0 4 28 c2 15 9 65 15 112 35 268 140 537 294 754 113 157
184 235 526 576 410 408 514 527 670 766 181 278 312 604 380 949 52 267 61
360 67 690 l5 310 58 120 c97 199 125 310 118 473 -4 114 -23 154 -88 191 -77
43 -174 23 -228 -47 -23 -31 -27 -46 -33 -151 -8 -133 -28 -203 -95 -329 -220
-418 -847 -1010 -1649 -1562 -355 -244 -477 -361 -748 -719 -152 -200 -191
-237 -286 -266 -23 -7 -24 -5 -19 26 3 19 33 93 66 164 77 166 96 232 89 305
-6 67 -22 102 -71 152 -51 52 -116 71 -225 66 -92 -5 -134 -20 -184 -67 -58
-53 -70 -93 -77 -243 -4 -111 -8 -141 -22 -154 -15 -15 -41 -18 -185 -18 -187
-1 -224 6 -299 57 -140 94 -211 291 -221 617 l-6 165 41 120 c22 66 64 176 93
245 61 143 371 767 485 975 242 444 473 852 685 1212 43 73 111 170 150 215
251 289 398 557 440 801 14 85 8 117 -37 189 -56 92 -75 158 -81 291 -4 76 -2
117 4 117 16 0 140 -135 206 -223 32 -42 87 -123 123 -179 36 -57 75 -113 87
-126 47 -51 56 -52 363 -52 l287 0 43 25 c37 21 50 39 84 110 47 101 122 223
187 308 59 77 200 217 217 217 8 0 18 -19 24 -43z"/>
<path d="M2552 6835 c-148 -69 -331 -323 -397 -551 -54 -187 -16 -318 110
-380 47 -22 64 -26 109 -21 142 14 300 163 418 393 74 144 93 213 93 329 0 91
-3 104 -27 146 -62 105 -188 139 -306 84z"/>
<path d="M1125 4277 c-65 -22 -99 -43 -138 -86 -55 -61 -70 -98 -75 -184 -4
-71 -2 -82 27 -142 49 -100 131 -155 242 -163 85 -6 152 16 213 69 195 172 88
493 -172 514 -34 3 -73 -1 -97 -8z"/>
</g>
</svg>
