<?xml version="1.0" standalone="no"?>
<!DOCTYPE svg PUBLIC "-//W3C//DTD SVG 20010904//EN"
 "http://www.w3.org/TR/2001/REC-SVG-20010904/DTD/svg10.dtd">
<svg version="1.0" xmlns="http://www.w3.org/2000/svg"
 width="320.000000pt" height="320.000000pt" viewBox="0 0 320.000000 320.000000"
 preserveAspectRatio="xMidYMid meet">
<metadata>
Created by potrace 1.16, written by Peter Selinger 2001-2019
</metadata>
<g transform="translate(0.000000,320.000000) scale(0.100000,-0.100000)"
fill="#000000" stroke="none">
<path d="M1545 3011 c-68 -30 -95 -121 -55 -188 22 -38 22 -42 4 -165 -5 -35
-8 -38 -40 -38 -30 0 -34 -3 -34 -26 0 -26 -1 -26 -25 -10 -33 21 -35 21 -35
-12 0 -43 -28 -62 -89 -62 -38 0 -52 -4 -49 -13 2 -7 46 -92 98 -190 l95 -177
185 0 185 0 95 177 c52 98 96 183 98 190 3 9 -12 13 -51 13 -61 0 -87 19 -87
63 0 32 -3 32 -35 11 -24 -16 -25 -16 -25 10 0 23 -4 26 -34 26 -32 0 -35 3
-40 38 -18 123 -18 127 4 165 51 85 0 186 -97 193 -26 2 -57 0 -68 -5z m109
-71 c11 -11 19 -32 19 -49 0 -44 -28 -71 -73 -71 -45 0 -73 27 -73 70 0 69 76
99 127 50z m-27 -440 c31 -24 89 -26 138 -6 30 13 35 13 47 -1 7 -9 28 -22 46
-30 l33 -14 -62 -117 c-34 -64 -66 -123 -72 -129 -7 -9 -51 -13 -157 -13 -106
0 -150 4 -157 13 -6 6 -38 65 -72 129 l-62 117 33 14 c18 8 39 21 46 30 12 14
17 14 47 1 49 -20 108 -18 136 6 30 24 26 24 56 0z"/>
<path d="M1380 1990 l0 -100 220 0 220 0 0 100 0 100 -220 0 -220 0 0 -100z
m380 5 l0 -45 -160 0 -160 0 0 45 0 45 160 0 160 0 0 -45z"/>
<path d="M1403 1788 c4 -40 9 -104 13 -143 6 -71 2 -95 -66 -355 -11 -41 -22
-112 -26 -157 l-7 -83 283 0 283 0 -7 83 c-4 46 -18 126 -31 178 -64 242 -67
262 -61 334 4 39 9 103 13 143 l6 72 -203 0 -203 0 6 -72z m342 -10 c-32 -143
-28 -199 35 -445 22 -84 40 -169 40 -188 l0 -35 -220 0 -220 0 0 29 c0 36 22
143 50 236 39 132 51 228 39 313 -5 42 -12 85 -15 95 -5 16 7 17 146 17 l150
0 -5 -22z"/>
<path d="M1300 940 l0 -80 300 0 300 0 0 80 0 80 -300 0 -300 0 0 -80z m540
-5 l0 -25 -240 0 -240 0 0 25 0 25 240 0 240 0 0 -25z"/>
<path d="M1330 796 c0 -18 7 -50 15 -69 8 -20 15 -43 15 -51 0 -8 -26 -52 -57
-98 -60 -87 -82 -135 -83 -180 l0 -28 380 0 380 0 0 28 c-1 45 -23 93 -83 180
-31 46 -57 90 -57 98 0 8 7 31 15 51 8 19 15 51 15 69 l0 34 -270 0 -270 0 0
-34z m480 -30 c0 -2 -7 -20 -15 -40 -21 -50 -7 -97 49 -174 41 -56 76 -114 76
-127 0 -3 -144 -5 -320 -5 -176 0 -320 2 -320 5 0 13 35 71 76 127 56 77 70
124 49 174 -8 20 -15 38 -15 40 0 2 95 4 210 4 116 0 210 -2 210 -4z"/>
<path d="M1180 260 l0 -80 420 0 420 0 0 80 0 80 -420 0 -420 0 0 -80z m788
-2 l-3 -23 -365 0 -365 0 -3 23 -3 22 371 0 371 0 -3 -22z"/>
</g>
</svg>
