<?xml version="1.0" standalone="no"?>
<!DOCTYPE svg PUBLIC "-//W3C//DTD SVG 20010904//EN"
 "http://www.w3.org/TR/2001/REC-SVG-20010904/DTD/svg10.dtd">
<svg version="1.0" xmlns="http://www.w3.org/2000/svg"
 width="320.000000pt" height="320.000000pt" viewBox="0 0 320.000000 320.000000"
 preserveAspectRatio="xMidYMid meet">
<metadata>
Created by potrace 1.16, written by Peter Selinger 2001-2019
</metadata>
<g transform="translate(0.000000,320.000000) scale(0.100000,-0.100000)"
fill="#000000" stroke="none">
<path d="M1545 3021 c-67 -30 -95 -121 -56 -187 l22 -37 -53 -45 c-116 -99
-189 -181 -220 -247 -28 -61 -30 -73 -26 -144 5 -93 36 -155 100 -201 l41 -30
247 0 247 0 41 30 c22 16 53 51 69 77 25 43 28 57 28 138 0 75 -4 97 -24 135
-54 104 -77 105 -149 7 -53 -72 -118 -151 -109 -132 3 6 36 62 74 125 43 72
67 123 65 137 -2 14 -34 48 -78 84 -41 34 -74 63 -74 65 0 1 10 19 21 39 30
51 22 116 -19 158 -24 23 -41 31 -79 33 -26 2 -57 0 -68 -5z m101 -64 c54 -47
23 -127 -51 -127 -67 0 -93 82 -41 127 34 29 58 29 92 0z m64 -254 l78 -66
-94 -155 c-91 -149 -94 -156 -79 -178 8 -13 27 -27 41 -30 30 -8 44 6 161 158
76 99 83 99 109 11 27 -92 -3 -190 -73 -238 -37 -25 -39 -25 -253 -25 -214 0
-216 0 -253 25 -68 47 -100 150 -74 237 21 69 77 138 191 239 130 114 137 115
246 22z"/>
<path d="M1380 1980 l0 -100 220 0 220 0 0 100 0 100 -220 0 -220 0 0 -100z
m380 5 l0 -45 -160 0 -160 0 0 45 0 45 160 0 160 0 0 -45z"/>
<path d="M1400 1838 c0 -7 -13 -123 -30 -258 -32 -269 -50 -445 -50 -502 l0
-38 280 0 280 0 0 38 c0 57 -18 233 -50 502 -17 135 -30 251 -30 258 0 9 -51
12 -200 12 -149 0 -200 -3 -200 -12z m350 -57 c0 -4 13 -116 30 -247 16 -131
32 -283 36 -336 l7 -98 -223 0 -223 0 7 100 c4 55 20 207 36 337 17 130 30
240 30 245 0 4 68 8 150 8 83 0 150 -4 150 -9z"/>
<path d="M1300 930 l0 -80 300 0 300 0 0 80 0 80 -300 0 -300 0 0 -80z m540
-5 l0 -25 -240 0 -240 0 0 25 0 25 240 0 240 0 0 -25z"/>
<path d="M1330 786 c0 -18 7 -50 15 -69 8 -20 15 -43 15 -51 0 -9 -26 -53 -57
-98 -60 -88 -82 -136 -83 -180 l0 -28 380 0 380 0 0 28 c-1 44 -23 92 -83 180
-31 45 -57 89 -57 98 0 8 7 31 15 51 8 19 15 51 15 69 l0 34 -270 0 -270 0 0
-34z m480 -30 c0 -2 -7 -20 -15 -40 -21 -50 -7 -97 49 -174 41 -56 76 -114 76
-127 0 -3 -144 -5 -320 -5 -176 0 -320 2 -320 5 0 13 35 71 76 127 56 77 70
124 49 174 -8 20 -15 38 -15 40 0 2 95 4 210 4 116 0 210 -2 210 -4z"/>
<path d="M1180 250 l0 -80 420 0 420 0 0 80 0 80 -420 0 -420 0 0 -80z m790
-5 l0 -25 -370 0 -370 0 0 25 0 25 370 0 370 0 0 -25z"/>
</g>
</svg>
